<svg 
xmlns="http://www.w3.org/2000/svg"
xmlns:xlink="http://www.w3.org/1999/xlink" 
width="45px"
height="45px" 
viewBox="0 0 45 45"
version="1.1">
<defs>
<linearGradient id="linear0" gradientUnits="userSpaceOnUse" x1="305.20093" y1="598.59198" x2="305.785" y2="8.243759" gradientTransform="matrix(0.0747508,0,0,0.0747508,0.00000113198,-0.0000157535)">
<stop offset="0" style="stop-color:rgb(43.921569%,93.72549%,100%);stop-opacity:1;"/>
<stop offset="1" style="stop-color:rgb(34.117647%,43.921569%,100%);stop-opacity:1;"/>
</linearGradient>
</defs>
<g id="surface1">
<path style=" stroke:none;fill-rule:nonzero;fill:url(#linear0);" d="M 10.367188 0.0742188 L 34.632812 0.0742188 C 40.335938 0.0742188 44.925781 4.664062 44.925781 10.367188 L 44.925781 34.632812 C 44.925781 40.335938 40.335938 44.925781 34.632812 44.925781 L 10.367188 44.925781 C 4.664062 44.925781 0.0742188 40.335938 0.0742188 34.632812 L 0.0742188 10.367188 C 0.0742188 4.664062 4.664062 0.0742188 10.367188 0.0742188 Z M 10.367188 0.0742188 "/>
<path style=" stroke:none;fill-rule:nonzero;fill:rgb(100%,100%,100%);fill-opacity:1;" d="M 9.902344 12.828125 C 9.664062 12.828125 9.441406 12.871094 9.230469 12.953125 L 13.453125 17.296875 L 17.71875 21.722656 L 17.796875 21.816406 L 17.921875 21.9375 L 18.046875 22.0625 L 18.296875 22.328125 L 21.953125 26.082031 C 22.015625 26.121094 22.191406 26.285156 22.332031 26.351562 C 22.507812 26.441406 22.699219 26.523438 22.898438 26.53125 C 23.113281 26.539062 23.332031 26.476562 23.523438 26.382812 C 23.667969 26.3125 23.734375 26.210938 23.902344 26.082031 L 28.136719 21.707031 L 32.421875 17.296875 L 36.546875 13.046875 C 36.28125 12.902344 35.988281 12.828125 35.675781 12.828125 Z M 8.609375 13.359375 C 8.160156 13.785156 7.875 14.425781 7.875 15.148438 L 7.875 29.414062 C 7.875 30 8.066406 30.53125 8.375 30.941406 L 8.96875 30.378906 L 13.375 26.097656 L 17.28125 22.3125 L 17.207031 22.21875 L 12.921875 17.8125 L 8.640625 13.390625 Z M 37.109375 13.5 L 32.933594 17.8125 L 28.667969 22.21875 L 28.589844 22.296875 L 32.652344 26.238281 L 37.0625 30.519531 L 37.324219 30.769531 C 37.5625 30.386719 37.699219 29.917969 37.699219 29.414062 L 37.699219 15.148438 C 37.699219 14.503906 37.476562 13.917969 37.109375 13.5 Z M 17.78125 22.828125 L 13.886719 26.609375 L 9.464844 30.894531 L 8.90625 31.4375 C 9.199219 31.628906 9.535156 31.75 9.902344 31.75 L 35.675781 31.75 C 36.113281 31.75 36.511719 31.582031 36.84375 31.3125 L 36.5625 31.035156 L 32.140625 26.75 L 28.074219 22.828125 L 24.414062 26.597656 C 24.21875 26.726562 24.085938 26.871094 23.890625 26.960938 C 23.582031 27.105469 23.238281 27.226562 22.894531 27.222656 C 22.550781 27.21875 22.214844 27.082031 21.90625 26.929688 C 21.753906 26.855469 21.667969 26.777344 21.488281 26.625 Z M 17.78125 22.828125 "/>
</g>
</svg>
