<?xml version="1.0" encoding="utf-8"?>
<svg viewBox="84.766 34.914 105.747 60.927" xmlns="http://www.w3.org/2000/svg" height="current" width="current">
  <g transform="matrix(0.006083, 0, 0, -0.00944, 142.277573, 94.799355)" fill="current" stroke="current" style="">
    <path d="M -3578.508 5973.011 C -5085.762 5789.969 -6237.803 5296.175 -6348.206 4785.354 C -6401.008 4525.688 -6276.204 4291.562 -6040.995 4231.967 L -5930.591 4202.171 L -6031.396 4346.9 C -6381.808 4857.72 -5776.985 5308.944 -4317.735 5636.723 C -3439.303 5832.537 -2080.854 5934.702 -1850.447 5828.278 C -1802.443 5802.738 -1759.243 5738.886 -1759.243 5687.807 C -1759.243 5611.179 -2748.078 4393.726 -3271.295 3819.054 C -3357.701 3725.407 -3439.303 3704.122 -3957.722 3640.268 C -5292.168 3478.506 -6511.413 3074.107 -7538.649 2452.61 C -8330.676 1971.588 -8997.901 1273.468 -9079.502 843.526 C -9146.706 494.469 -8767.493 209.26 -8239.474 209.26 C -7495.447 213.517 -6780.222 515.748 -5695.384 1286.237 C -5234.566 1618.269 -3986.522 2729.304 -3583.309 3176.269 C -3285.698 3504.049 -3261.698 3516.82 -3031.29 3542.358 C -2896.883 3559.389 -2594.474 3572.157 -2359.265 3572.157 L -1927.249 3576.414 L -2119.258 3665.81 C -2277.662 3738.173 -2364.064 3750.946 -2680.876 3729.663 L -3055.288 3708.378 L -2752.878 4053.18 C -2162.458 4730.015 -1557.636 5491.991 -1519.235 5619.693 C -1466.433 5781.453 -1538.435 5930.443 -1696.839 5994.296 C -1855.245 6058.15 -2964.087 6045.377 -3578.508 5973.011 Z M -3780.115 3265.664 C -4216.931 2788.9 -5584.979 1626.785 -6151.398 1247.926 C -6871.424 771.161 -7073.032 668.997 -7548.249 524.265 C -8205.874 328.451 -8815.494 430.615 -8853.896 737.104 C -8897.098 1064.883 -8201.074 1818.342 -7433.046 2286.593 C -6516.213 2839.985 -5296.969 3265.664 -4135.329 3423.168 C -3530.507 3508.303 -3549.707 3516.82 -3780.115 3265.664 Z" style="stroke-linecap: round; stroke: current; paint-order: fill; stroke-width: 64.4205px; stroke-miterlimit: 24;"/>
    <path d="M 1423.269 5994.296 C 717.645 5921.928 -184.787 5675.033 -861.612 5377.058 C -1648.838 5023.738 -2061.655 4661.907 -2167.259 4223.455 C -2191.258 4112.774 -2172.06 4065.949 -2056.854 3951.018 L -1917.649 3810.539 L -1912.848 4048.923 C -1908.05 4461.836 -1687.242 4730.015 -1068.02 5053.535 C -218.389 5504.757 1101.658 5832.537 2008.889 5824.023 C 2820.118 5815.508 2834.519 5747.4 2148.096 5100.361 C 760.845 3789.255 247.228 3172.019 -16.78 2503.693 C -155.988 2150.375 -136.786 1997.128 40.82 1997.128 C 127.223 1997.128 304.831 2124.834 684.044 2461.125 C 1212.062 2929.374 2133.695 3572.157 2896.923 4010.611 C 3266.535 4219.197 3674.549 4423.525 3732.152 4423.525 C 3741.751 4423.525 3688.949 4321.36 3616.948 4202.171 C 3429.74 3887.163 3151.33 3201.812 3064.928 2848.496 C 2954.523 2380.242 2968.925 1886.45 3103.328 1656.583 C 3261.734 1371.374 3477.741 1260.696 3837.756 1281.981 C 4207.368 1303.266 4519.38 1439.483 5061.798 1826.856 C 6050.634 2529.235 6861.863 3521.074 7212.277 4449.066 C 7457.084 5091.849 7380.281 5555.841 6981.867 5887.873 L 6833.062 6015.58 L 6833.062 5858.076 C 6833.062 5777.199 6857.062 5692.063 6881.064 5679.291 C 7001.067 5611.179 7121.071 5313.203 7121.071 5070.564 C 7121.071 4742.784 7020.269 4449.066 6727.457 3946.756 C 6141.837 2933.634 4826.59 1724.692 4044.164 1486.31 C 3684.151 1375.631 3338.537 1537.392 3232.935 1865.168 C 3084.13 2333.42 3328.938 3274.177 3813.753 4134.059 C 4101.766 4644.879 4058.564 4738.53 3612.148 4576.774 C 2882.522 4312.845 775.246 2920.864 309.631 2397.27 C 136.824 2201.455 136.824 2324.905 309.631 2644.169 C 674.443 3325.261 1332.066 4104.262 2148.096 4827.923 C 2436.104 5087.59 2724.115 5360.029 2786.518 5440.907 C 3151.33 5913.417 2642.514 6122.003 1423.269 5994.296 Z" style="stroke-linecap: round; stroke: current; paint-order: fill; stroke-width: 64.4205px; stroke-miterlimit: 24;"/>
  </g>
</svg>